<svg id="Layer_1" data-name="Layer 1" xmlns="http://www.w3.org/2000/svg" viewBox="0 0 50 50"><defs><style>.cls-1{fill:#fff;}</style></defs><path class="cls-1" d="M25,3.7c3,.06,6,.09,9.06.19A13.44,13.44,0,0,1,40.44,5.6a10.76,10.76,0,0,1,5.34,7.92,39,39,0,0,1,.41,5.72c.05,4.26,0,8.52,0,12.77a20.06,20.06,0,0,1-.75,6.07,10.78,10.78,0,0,1-9,7.8,31.06,31.06,0,0,1-5.28.4q-7.62,0-15.25-.09a12.91,12.91,0,0,1-6.93-2,10.75,10.75,0,0,1-4.89-7.65,42,42,0,0,1-.41-5.72c-.05-4.26,0-8.51,0-12.77a20.51,20.51,0,0,1,.72-6,10.77,10.77,0,0,1,9-7.88,42.47,42.47,0,0,1,5.87-.42c1.88-.07,3.76,0,5.65,0ZM42.48,25h-.09c0-1.8,0-3.61,0-5.41A44.29,44.29,0,0,0,42,14.1a6.93,6.93,0,0,0-4.55-5.69,12,12,0,0,0-4.2-.72c-4.61,0-9.23-.1-13.84-.07A35.77,35.77,0,0,0,14,8a7,7,0,0,0-5.69,4.55,11.84,11.84,0,0,0-.72,4.21c0,4.61-.1,9.23-.08,13.84A35.78,35.78,0,0,0,7.91,36a7,7,0,0,0,4.59,5.71,12,12,0,0,0,4.16.7c4,0,8,.1,11.94.1,2,0,4-.08,6-.2A8.41,8.41,0,0,0,39,40.84a7.63,7.63,0,0,0,3.16-6.15C42.36,31.48,42.39,28.26,42.48,25Z"/><path class="cls-1" d="M35.87,25.05A10.93,10.93,0,1,1,24.94,14.11,10.91,10.91,0,0,1,35.87,25.05Zm-3.82,0A7.11,7.11,0,1,0,25,32.15,7.14,7.14,0,0,0,32.05,25Z"/><path class="cls-1" d="M36.33,11.11a2.56,2.56,0,1,1-2.57,2.53A2.6,2.6,0,0,1,36.33,11.11Z"/></svg>