<?xml version="1.0" encoding="utf-8"?>
<!-- Generator: Adobe Illustrator 25.0.1, SVG Export Plug-In . SVG Version: 6.00 Build 0)  -->
<svg version="1.1" id="Layer_1" xmlns="http://www.w3.org/2000/svg" xmlns:xlink="http://www.w3.org/1999/xlink" x="0px" y="0px"
	 viewBox="0 0 946.9 128.7" style="enable-background:new 0 0 946.9 128.7;" xml:space="preserve">
<style type="text/css">
	.st0{fill:#FFFFFF;}
</style>
<path class="st0" d="M114.2,62.7c-26.7,0-53.2,0-79.8,0c0,5.1,0,10.1,0,15.2c0.7,0,1.4,0,2,0c19.6,0,39.3,0,58.9,0
	c4.8,0,9.5,0.9,13.7,3.3c4.8,2.7,7.1,6.9,7.2,12.4c0,3.9,0,7.8,0,11.6c0,9.6-4.8,15-14.4,16c-1.9,0.2-3.8,0.3-5.7,0.3
	c-21.2,0-42.5,0-63.7,0c-4.9,0-9.7-0.8-13.9-3.7c-3.4-2.3-5.3-5.6-6.2-9.7c28.2,0,56.2,0,84.3,0c0-5.5,0-10.8,0-16.4
	c-0.5,0-1.1,0-1.7,0c-20.7,0-41.3,0-62,0c-3.8,0-7.5-0.7-10.9-2.5c-4.5-2.4-7.2-6-7.4-11.2c-0.2-4.8-0.2-9.6,0.1-14.4
	c0.3-5.4,3.1-9.2,8-11.4c3.9-1.8,8.1-2.2,12.3-2.2c19.5,0,39.1,0,58.6,0c5.1,0,10,1,14.3,4C110.8,56.2,113,58.9,114.2,62.7z"/>
<path class="st0" d="M168,94.3c0,9.2,0,18.2,0,27.3c-7.2,0-14.4,0-21.6,0c0-23.8,0-47.5,0-71.4c0.6,0,1.1,0,1.7,0
	c25.1,0,50.1,0,75.2,0c5.5,0,10.9,0.7,15.8,3.3c6.2,3.2,9.4,8.2,9.4,15.2c0,2.5,0,5.1,0,7.6c0,9.2-4.4,14.9-13.5,16.9
	c-3.5,0.8-7.1,1.2-10.6,1.2c-18.1,0.1-36.3,0.1-54.4,0.1C169.5,94.3,168.9,94.3,168,94.3z M168.1,81c0.5,0,0.9,0.1,1.2,0.1
	c17.4,0,34.8,0,52.2,0c1.2,0,2.5-0.2,3.7-0.4c2.5-0.5,4.1-2,4.3-4.6c0.2-2.6,0.2-5.3,0.1-7.9c-0.2-2.5-1.7-4.2-4.2-4.8
	c-1.7-0.4-3.5-0.6-5.2-0.6c-16.8,0-33.5,0-50.3,0c-0.5,0-1.1,0-1.7,0C168.1,68.8,168.1,74.8,168.1,81z"/>
<path class="st0" d="M489.3,108.1c-0.2,5.1-4.1,10.4-9.3,11.9c-3.2,0.9-6.7,1.5-10.1,1.6c-21.3,0.1-42.7,0.1-64,0
	c-4.3,0-8.4-0.8-12.2-3c-4.8-2.7-7.2-6.8-7.2-12.3c0-13.4,0-26.8,0-40.2c0-7.1,3.3-12.1,10.1-14.3c3.2-1,6.8-1.7,10.2-1.7
	c20.5-0.2,40.9-0.1,61.4-0.1c4.3,0,8.6,0.5,12.6,2.3c4.4,2,7.5,5.2,8.8,10.2c-27,0-53.9,0-80.9,0c0,15.2,0,30.2,0,45.5
	C435.5,108.1,462.4,108.1,489.3,108.1z"/>
<path class="st0" d="M643.1,121.1c6.2-5.6,12.3-11.4,18.7-16.7c19.8-16.6,41.5-30.4,64.6-42.2C761.2,44.3,797.9,31.7,836,23
	c19-4.4,38.2-7.8,57.6-10.1c12.9-1.5,26-2.6,38.9-3.8c2-0.2,4-0.2,6-0.3c-35.7,3.4-70.6,10.5-104.8,21.4
	c-22.8,7.2-44.8,16.1-66.1,26.9c-30,15.3-57.7,33.9-82.3,57c-2.3,2.2-4.6,4.5-6.9,6.7c-0.4,0.4-1.1,0.8-1.7,0.8c-11,0-22,0-33,0
	c-0.1,0-0.3-0.1-0.4-0.1C643.3,121.4,643.2,121.2,643.1,121.1z"/>
<path class="st0" d="M541.3,86.4c0,7.4,0,14.4,0,21.7c24.8,0,49.6,0,74.5,0c0,4.6,0,9,0,13.5c-32.2,0-64.3,0-96.5,0
	c0-15.8,0-31.4,0-47.3c21.8,0,43.6,0,65.5,0c0,4,0,8,0,12.1C570.3,86.4,555.8,86.4,541.3,86.4z"/>
<path class="st0" d="M263.1,105.9c3.9-4.1,7.4-8,11.1-11.7c0.4-0.4,1.2-0.5,1.8-0.5c14.2,0,28.5,0,42.7,0c0.6,0,1.1,0,2,0
	c-0.5-0.7-0.9-1.2-1.2-1.8c-6.7-9.1-13.3-18.3-20.1-27.4c-0.7-1-0.7-1.6,0.1-2.5c4.1-4.9,8.1-9.8,12.3-15
	c18.4,24.8,36.7,49.5,55.1,74.4c-0.5,0.1-0.9,0.1-1.3,0.1c-7.8,0-15.5,0-23.3,0c-0.6,0-1.5-0.4-1.9-0.9c-3.3-4.4-6.5-8.8-9.7-13.3
	c-0.7-1-1.5-1.4-2.8-1.4c-20.9,0-41.7,0-62.6,0C264.7,105.9,264.1,105.9,263.1,105.9z"/>
<path class="st0" d="M519.3,50.2c32.5,0,64.9,0,97.5,0c0,4.1,0,8.2,0,12.4c-32.5,0-65,0-97.5,0C519.3,58.5,519.3,54.4,519.3,50.2z"
	/>
<path class="st0" d="M775.7,121.6c-1.4,0-2.9,0-4.3,0c-9.4,0-18.8,0-28.3,0c-0.7,0-1.5-0.2-2-0.5c-9.7-7-19.3-14-29-21
	c-0.2-0.1-0.3-0.3-0.6-0.5c1.1-0.9,2.1-1.7,3.2-2.5c4.4-3.2,8.8-6.4,13.1-9.6c0.7-0.5,1.2-0.5,1.9,0c15.2,11.2,30.5,22.4,45.7,33.6
	c0.1,0.1,0.3,0.2,0.4,0.3C775.7,121.4,775.7,121.5,775.7,121.6z"/>
<path class="st0" d="M704,67.7c-6,3.8-11.9,7.5-17.8,11.3c-0.9,0.6-1.3,0.1-1.9-0.3c-9.3-6.8-18.6-13.6-27.9-20.4
	c-3.6-2.6-7.2-5.2-11-8c0.7-0.1,1.1-0.1,1.5-0.1c10.5,0,20.9,0,31.4,0c0.7,0,1.5,0.2,2,0.5c7.8,5.5,15.5,11,23.3,16.6
	C703.7,67.4,703.8,67.6,704,67.7z"/>
</svg>
