<svg id="Layer_1" data-name="Layer 1" xmlns="http://www.w3.org/2000/svg" viewBox="0 0 50 50"><defs><style>.cls-1{fill:#fff;}</style></defs><path class="cls-1" d="M16.39,36.74a9,9,0,0,1-6.29-2.83,8.42,8.42,0,0,1-2-3.36A9.63,9.63,0,0,0,12,30.4c-4.4-1.35-6.73-4.25-7-8.88a9.59,9.59,0,0,0,3.94,1.1C4.94,19.33,4.05,15.4,6.2,10.7a25.51,25.51,0,0,0,18.36,9.36c0-.35-.08-.63-.12-.91a8.9,8.9,0,0,1,8.8-10.06,8.63,8.63,0,0,1,6.2,2.52.72.72,0,0,0,.77.21,18.25,18.25,0,0,0,4.63-1.75l.55-.29a9.33,9.33,0,0,1-3.67,4.82,16.88,16.88,0,0,0,4.86-1.3,14.88,14.88,0,0,1-3.42,3.78,2.3,2.3,0,0,0-1,2.14c0,10.1-6.25,19.63-15.44,23.29A25.13,25.13,0,0,1,3.8,40.76l-.49-.33A18.1,18.1,0,0,0,16.39,36.74Z"/></svg>