<svg id="Layer_1" data-name="Layer 1" xmlns="http://www.w3.org/2000/svg" viewBox="0 0 50 50"><defs><style>.cls-1{fill:#fff;}</style></defs><path class="cls-1" d="M47.82,22.68v4.64l-.09,1.1c-.21,2.17-.33,4.35-.65,6.5a5.66,5.66,0,0,1-5.49,5.3c-3.06.31-6.14.55-9.22.61q-7.32.15-14.66,0c-3.11-.06-6.21-.34-9.31-.61a5.53,5.53,0,0,1-4.9-3.51,8.49,8.49,0,0,1-.58-2.32c-.24-2.36-.48-4.73-.58-7.1A59.33,59.33,0,0,1,3,15.09c.52-3.17,2.35-5,5.49-5.31s6.14-.55,9.22-.61Q25,9,32.37,9.17c3.11.06,6.22.32,9.31.61A5.61,5.61,0,0,1,47,14.68c.31,1.74.45,3.5.63,5.26C47.73,20.85,47.76,21.77,47.82,22.68Zm-27.3,9.15L32.32,25l-11.8-6.83Z"/></svg>